<svg width="13" height="13" viewBox="0 0 13 13" fill="none" xmlns="http://www.w3.org/2000/svg">
<path fill-rule="evenodd" clip-rule="evenodd" d="M-2.84124e-07 6.5C-1.2721e-07 10.0898 2.91023 13 6.5 13C10.0898 13 13 10.0898 13 6.5C13 2.91023 10.0898 5.12636e-07 6.5 6.6955e-07C2.91023 8.26464e-07 -4.41038e-07 2.91023 -2.84124e-07 6.5ZM5.31818 8.39091C5.31721 8.47477 5.33833 8.55741 5.3794 8.63054C5.42047 8.70366 5.48006 8.76469 5.55218 8.8075C5.62224 8.84781 5.70245 8.86702 5.78317 8.86283C5.86389 8.85863 5.94168 8.83121 6.00718 8.78386L8.66627 6.89295C8.728 6.84783 8.7781 6.78865 8.81242 6.72032C8.84674 6.65199 8.8643 6.57646 8.86364 6.5C8.86439 6.42344 8.84688 6.3478 8.81256 6.27935C8.77823 6.21091 8.72809 6.15164 8.66627 6.10645L6.00718 4.21555C5.94168 4.1682 5.86389 4.14078 5.78317 4.13658C5.70245 4.13239 5.62224 4.1516 5.55218 4.19191C5.47997 4.23477 5.42033 4.29589 5.37925 4.36913C5.33817 4.44236 5.31711 4.52513 5.31818 4.60909L5.31818 8.39091Z" fill="#686868"/>
</svg>
