<svg width="107" height="105" viewBox="0 0 107 105" fill="none" xmlns="http://www.w3.org/2000/svg">
<path d="M102 52.5C102 78.7335 80.2858 100 53.5 100C26.7142 100 5 78.7335 5 52.5C37.5 52.5 23.2142 52.5 50 52.5C76.7858 52.5 56.5 52.5 102 52.5Z" fill="#FAFAFA"/>
<g filter="url(#filter0_d_640_81)">
<ellipse cx="53.5" cy="52.5" rx="43.5" ry="42.5" fill="white"/>
</g>
<path fill-rule="evenodd" clip-rule="evenodd" d="M75.3959 40.9769C72.5357 42.6502 68.5215 41.1085 66.4298 37.5333C64.3381 33.9581 64.961 29.7032 67.8212 28.0299C70.6814 26.3565 74.6956 27.8983 76.7873 31.4735C78.879 35.0487 78.2561 39.3035 75.3959 40.9769ZM39.4847 66.6147C39.2914 65.081 39.3991 63.5244 39.8016 62.0319C40.2032 60.5362 40.8884 59.1316 41.82 57.8945C42.7847 56.6096 43.9951 55.5291 45.3808 54.7157C47.3223 53.5702 49.5302 52.9842 51.7688 53.0172C52.3043 53.0251 52.8341 53.0682 53.3581 53.1465C53.5429 52.6499 53.7614 52.1654 54.0134 51.6928C55.067 49.7173 56.6476 48.0681 58.589 46.9226C59.987 46.0977 61.4997 45.5662 63.0932 45.3427C64.6319 45.125 66.1808 45.2039 67.6908 45.5765C69.1924 45.9441 70.6074 46.6027 71.8554 47.5151C73.1533 48.4641 74.2299 49.6499 75.0501 51.04C75.8238 52.3514 76.3623 53.8759 76.6509 55.5797C76.8913 57.004 76.9644 58.5854 76.8672 60.2833C76.7117 62.9711 76.1207 66.0274 75.1167 69.3646C73.4534 74.8957 71.2099 79.3624 71.1121 79.5475L70.532 80.6968C70.2741 81.2046 69.7425 81.5183 69.1733 81.4984L67.8868 81.4505C67.6752 81.4427 62.6868 81.2483 57.0371 80.032C53.6305 79.2972 50.6695 78.3367 48.2416 77.1731C46.7084 76.4373 45.3555 75.611 44.229 74.7095C42.8772 73.633 41.8031 72.4245 41.0294 71.1132C40.2052 69.7253 39.6878 68.2096 39.4847 66.6147ZM24.6823 61.9648C26.9134 65.7784 31.0407 67.5134 33.9009 65.84C36.7611 64.1666 37.271 59.7186 35.0398 55.9051C32.8087 52.0915 28.6814 50.3566 25.8212 52.0299C22.961 53.7033 22.4511 58.1513 24.6823 61.9648ZM47.7135 40.2695C50.363 44.7981 55.2158 46.8866 58.5527 44.9343C61.8896 42.9821 62.4468 37.7283 59.7973 33.1997C57.1478 28.6712 52.2949 26.5826 48.9581 28.5349C45.6212 30.4871 45.064 35.7409 47.7135 40.2695ZM44.0477 52.0712C40.7109 54.0235 35.971 52.1281 33.461 47.8379C30.951 43.5477 31.6212 38.4871 34.9581 36.5349C38.2949 34.5826 43.0348 36.4779 45.5448 40.7682C48.0549 45.0584 47.3846 50.119 44.0477 52.0712Z" fill="url(#paint0_linear_640_81)"/>
<defs>
<filter id="filter0_d_640_81" x="0" y="0" width="107" height="105" filterUnits="userSpaceOnUse" color-interpolation-filters="sRGB">
<feFlood flood-opacity="0" result="BackgroundImageFix"/>
<feColorMatrix in="SourceAlpha" type="matrix" values="0 0 0 0 0 0 0 0 0 0 0 0 0 0 0 0 0 0 127 0" result="hardAlpha"/>
<feOffset/>
<feGaussianBlur stdDeviation="5"/>
<feComposite in2="hardAlpha" operator="out"/>
<feColorMatrix type="matrix" values="0 0 0 0 0.408333 0 0 0 0 0.408333 0 0 0 0 0.408333 0 0 0 0.16 0"/>
<feBlend mode="normal" in2="BackgroundImageFix" result="effect1_dropShadow_640_81"/>
<feBlend mode="normal" in="SourceGraphic" in2="effect1_dropShadow_640_81" result="shape"/>
</filter>
<linearGradient id="paint0_linear_640_81" x1="78.0393" y1="30.7203" x2="43.1638" y2="75.9227" gradientUnits="userSpaceOnUse">
<stop stop-color="#FDD340"/>
<stop offset="1" stop-color="#FFA623"/>
</linearGradient>
</defs>
</svg>
