<svg width="10" height="10" viewBox="0 0 10 10" fill="none" xmlns="http://www.w3.org/2000/svg">
<g clip-path="url(#clip0_22_612)">
<path fill-rule="evenodd" clip-rule="evenodd" d="M5.00008 0.416664C2.46883 0.416664 0.416748 2.46875 0.416748 5C0.416748 7.53125 2.46883 9.58333 5.00008 9.58333C7.53133 9.58333 9.58341 7.53125 9.58341 5C9.58341 2.46875 7.53133 0.416664 5.00008 0.416664ZM3.66675 4.16666C3.60761 4.16598 3.54934 4.18087 3.49778 4.20983C3.44622 4.23879 3.40318 4.28081 3.373 4.33166C3.34458 4.38106 3.33103 4.43762 3.33399 4.49454C3.33694 4.55146 3.35628 4.60631 3.38966 4.6525L4.723 6.5275C4.75482 6.57103 4.79655 6.60635 4.84473 6.63055C4.89291 6.65475 4.94616 6.66713 5.00008 6.66666C5.05407 6.6672 5.1074 6.65485 5.15566 6.63065C5.20393 6.60644 5.24572 6.57108 5.27758 6.5275L6.61091 4.6525C6.6443 4.60631 6.66364 4.55146 6.66659 4.49454C6.66955 4.43762 6.656 4.38106 6.62758 4.33166C6.59736 4.28075 6.55426 4.23869 6.50262 4.20973C6.45098 4.18076 6.39262 4.16591 6.33341 4.16666H3.66675Z" fill="#FFA420"/>
</g>
<defs>
<clipPath id="clip0_22_612">
<rect width="10" height="10" fill="white"/>
</clipPath>
</defs>
</svg>
