<svg width="24" height="24" viewBox="0 0 24 24" fill="none" xmlns="http://www.w3.org/2000/svg">
<path d="M17.6493 8.51289V9.94599C17.6493 10.1141 17.6992 10.2784 17.7926 10.4181C17.886 10.5579 18.0187 10.6668 18.174 10.7311C18.3293 10.7954 18.5002 10.8123 18.6651 10.7795C18.8299 10.7467 18.9813 10.6658 19.1002 10.5469L22.1483 7.49885C22.3077 7.33945 22.3972 7.12329 22.3972 6.8979C22.3972 6.67251 22.3077 6.45635 22.1483 6.29695L19.1002 3.24887C18.9813 3.13003 18.8299 3.04911 18.6651 3.01632C18.5002 2.98354 18.3293 3.00037 18.174 3.06469C18.0187 3.12901 17.886 3.23793 17.7926 3.37768C17.6992 3.51743 17.6493 3.68173 17.6493 3.84981V5.88981C14.8018 6.512 12.8893 8.25364 11.2658 10.0641C9.40772 8.0165 7.16543 6.06575 3.55295 5.69601C3.51385 5.68751 3.2886 5.66286 3.27245 5.66286C2.94439 5.66351 2.62921 5.79059 2.39244 6.01768C2.15568 6.24476 2.01556 6.55437 2.00122 6.88211C1.98688 7.20986 2.09942 7.53052 2.31545 7.77742C2.53147 8.02431 2.83435 8.17844 3.1611 8.20774C6.10548 8.46274 7.83608 10.0429 9.57772 11.997C7.83863 13.952 6.10378 15.5381 3.15855 15.7897C2.83485 15.823 2.53613 15.9788 2.32358 16.2252C2.11103 16.4716 2.00074 16.79 2.01529 17.1151C2.02985 17.4401 2.16816 17.7474 2.40189 17.9738C2.63561 18.2002 2.94706 18.3287 3.27245 18.3329C3.30475 18.3329 3.3345 18.3329 3.3668 18.3261C7.81143 17.9478 10.1991 15.1879 12.3232 12.7289C13.9475 10.8504 15.4206 9.19289 17.6493 8.51289Z" fill="white"/>
<path d="M19.1003 13.4488C18.9814 13.33 18.83 13.2491 18.6651 13.2163C18.5003 13.1835 18.3294 13.2003 18.1741 13.2646C18.0188 13.329 17.8861 13.4379 17.7926 13.5776C17.6992 13.7174 17.6494 13.8817 17.6493 14.0498V15.4948C16.5586 15.1499 15.5569 14.5695 14.7152 13.7948C14.4647 13.5808 14.1397 13.4748 13.8113 13.4998C13.4828 13.5248 13.1777 13.6788 12.9625 13.9282L12.9412 13.952C12.8318 14.0787 12.7486 14.2258 12.6965 14.3848C12.6443 14.5438 12.6241 14.7116 12.6372 14.8784C12.6502 15.0453 12.6962 15.2079 12.7724 15.3569C12.8487 15.5058 12.9537 15.6382 13.0815 15.7464C14.3758 16.915 15.9487 17.7316 17.6493 18.1178V20.1502C17.6494 20.3183 17.6992 20.4826 17.7926 20.6223C17.8861 20.7621 18.0188 20.871 18.1741 20.9353C18.3294 20.9996 18.5003 21.0165 18.6651 20.9837C18.83 20.9509 18.9814 20.87 19.1003 20.7511L22.1484 17.703C22.3077 17.5437 22.3972 17.3275 22.3972 17.1021C22.3972 16.8767 22.3077 16.6606 22.1484 16.5012L19.1003 13.4488Z" fill="white"/>
</svg>
