<svg width="10" height="10" viewBox="0 0 10 10" fill="none" xmlns="http://www.w3.org/2000/svg">
<g clip-path="url(#clip0_18_92)">
<path fill-rule="evenodd" clip-rule="evenodd" d="M4.99996 0.416672C2.46871 0.416672 0.416626 2.46876 0.416626 5C0.416626 7.53125 2.46871 9.58334 4.99996 9.58334C7.53121 9.58334 9.58329 7.53125 9.58329 5C9.58329 2.46876 7.53121 0.416672 4.99996 0.416672ZM3.66663 4.16667C3.60749 4.16599 3.54922 4.18088 3.49766 4.20984C3.4461 4.2388 3.40306 4.28082 3.37288 4.33167C3.34445 4.38107 3.33091 4.43763 3.33386 4.49455C3.33682 4.55146 3.35615 4.60632 3.38954 4.6525L4.72288 6.5275C4.7547 6.57103 4.79642 6.60636 4.84461 6.63056C4.89279 6.65476 4.94604 6.66714 4.99996 6.66667C5.05395 6.6672 5.10728 6.65486 5.15554 6.63065C5.2038 6.60645 5.2456 6.57109 5.27746 6.5275L6.61079 4.6525C6.64418 4.60632 6.66351 4.55146 6.66647 4.49455C6.66943 4.43763 6.65588 4.38107 6.62746 4.33167C6.59724 4.28076 6.55414 4.2387 6.5025 4.20973C6.45086 4.18077 6.3925 4.16592 6.33329 4.16667H3.66663Z" fill="#FFA420"/>
</g>
<defs>
<clipPath id="clip0_18_92">
<rect width="10" height="10" fill="white"/>
</clipPath>
</defs>
</svg>
