<svg width="14" height="14" viewBox="0 0 14 14" fill="none" xmlns="http://www.w3.org/2000/svg">
<g clip-path="url(#clip0_100_93)">
<path fill-rule="evenodd" clip-rule="evenodd" d="M5.83332 1.16668C5.83343 1.04502 5.7955 0.92638 5.72484 0.827348C5.65418 0.728317 5.55433 0.653855 5.43926 0.614383C5.32418 0.574911 5.19965 0.572404 5.08308 0.607213C4.96651 0.642022 4.86374 0.712405 4.78915 0.808513L0.705821 6.05851C0.626164 6.16091 0.582916 6.28694 0.582916 6.41668C0.582916 6.54641 0.626164 6.67245 0.705821 6.77485L4.78915 12.0248C4.86374 12.121 4.96651 12.1913 5.08308 12.2261C5.19965 12.261 5.32418 12.2584 5.43926 12.219C5.55433 12.1795 5.65418 12.105 5.72484 12.006C5.7955 11.907 5.83343 11.7883 5.83332 11.6667V9.33918C8.97107 9.40451 10.4784 10.0001 11.2356 10.6476C11.9554 11.263 12.0872 11.9869 12.2243 12.7453L12.2599 12.9407C12.2861 13.0805 12.3625 13.206 12.4747 13.2934C12.5869 13.3809 12.7271 13.4243 12.8691 13.4156C13.0111 13.4068 13.145 13.3465 13.2456 13.2459C13.3463 13.1454 13.4067 13.0115 13.4155 12.8695C13.5152 11.2665 13.3653 8.94368 12.2331 7.0006C11.1341 5.11468 9.15482 3.66451 5.83332 3.51285V1.16668Z" fill="#FDFDFD"/>
</g>
<defs>
<clipPath id="clip0_100_93">
<rect width="14" height="14" fill="white"/>
</clipPath>
</defs>
</svg>
