<svg width="14" height="14" viewBox="0 0 14 14" fill="none" xmlns="http://www.w3.org/2000/svg">
<path d="M9.682 6.69471C8.91714 7.29552 7.97269 7.62213 7.00003 7.62213C6.02736 7.62213 5.08292 7.29552 4.31806 6.69471C1.77467 7.62374 0 9.79665 0 12.0558C0 13.7943 5.6 13.9999 7 13.9999C8.4 13.9999 14 13.7943 14 12.0558C14 9.7966 12.2254 7.62388 9.68194 6.69471H9.682Z" fill="#FDFDFD"/>
<path d="M9.31003 0.956792C10.5858 2.23251 10.5858 4.30096 9.31003 5.57651C8.03431 6.85224 5.96587 6.85224 4.69031 5.57651C3.41459 4.30079 3.41459 2.23235 4.69031 0.956792C5.96603 -0.318931 8.03448 -0.318931 9.31003 0.956792Z" fill="#FDFDFD"/>
</svg>
