<svg width="14" height="14" viewBox="0 0 14 14" fill="none" xmlns="http://www.w3.org/2000/svg">
<path d="M3.25714 9.89916C2.72462 9.41963 2.34047 8.84472 2.08878 8.22742C1.42114 6.59013 1.73377 4.64286 3.03724 3.29964L4.24005 4.50244C4.30628 4.56868 4.4255 4.52099 4.4414 4.42296L5.09844 0.123073C5.10903 0.0515411 5.0481 -0.00939388 4.97657 0.00120351L0.674027 0.658241C0.576001 0.674138 0.528313 0.793358 0.594546 0.859592L1.8 2.06504C-0.18966 4.09974 -0.528777 7.15179 0.777351 9.5362C1.16945 10.2542 1.71257 10.9112 2.40405 11.4623C3.58036 12.3975 5.0269 12.8452 6.46285 12.8161L6.73308 11.049C5.49584 11.155 4.22415 10.7734 3.25714 9.89916Z" fill="#CCCCCC"/>
<path d="M11.258 10.9616C13.2477 8.92685 13.5868 5.87481 12.2807 3.49039C11.8886 2.77242 11.3455 2.11538 10.654 1.56432C9.47767 0.6291 8.03113 0.18136 6.59518 0.210503L6.32495 1.97762C7.55955 1.87164 8.83388 2.25315 9.80089 3.12743C10.3334 3.60697 10.7176 4.18187 10.9693 4.79917C11.6369 6.43647 11.3243 8.38374 10.0208 9.72696L8.81799 8.52415C8.75175 8.45792 8.63253 8.50561 8.61664 8.60363L7.9596 12.9035C7.949 12.9751 8.00994 13.036 8.08147 13.0254L12.384 12.3684C12.482 12.3525 12.5271 12.2332 12.4635 12.167L11.258 10.9616Z" fill="#CCCCCC"/>
</svg>
