<svg width="22" height="22" viewBox="0 0 22 22" fill="none" xmlns="http://www.w3.org/2000/svg">
<circle cx="11" cy="11" r="11" fill="#FFA420"/>
<g clip-path="url(#clip0_807_122)">
<path d="M16.7143 6.1877C16.7139 6.14079 16.7007 6.09488 16.676 6.05497C16.6513 6.01506 16.6162 5.98267 16.5744 5.96133C16.5326 5.94 16.4858 5.93052 16.439 5.93395C16.3922 5.93737 16.3473 5.95356 16.309 5.98075L15.3024 6.70238L15.2231 6.75946C14.1384 5.67692 12.6495 5 10.9998 5C7.69143 5 5 7.69177 5 11C5 14.3082 7.6916 17 10.9998 17C11.9822 17.0002 12.9496 16.7591 13.817 16.2979C14.6845 15.8367 15.4253 15.1695 15.9745 14.355C15.9967 14.3223 16.0122 14.2856 16.0202 14.247C16.0281 14.2084 16.0284 14.1685 16.0209 14.1298C16.0134 14.0911 15.9984 14.0542 15.9766 14.0213C15.9548 13.9884 15.9268 13.9601 15.8941 13.938L14.3931 12.8963C14.3225 12.8491 14.2361 12.8317 14.1527 12.8479C14.0693 12.8642 13.9957 12.9127 13.948 12.983C13.2845 13.9639 12.185 14.5496 11.0054 14.5496C9.04798 14.5496 7.45535 12.9573 7.45535 11.0003C7.45535 9.04341 9.04798 7.45111 11.0054 7.45111C11.8315 7.45111 12.5893 7.73834 13.1925 8.21322L13.023 8.33516L12.0156 9.05662C11.9777 9.08416 11.948 9.12161 11.9298 9.16487C11.9116 9.20813 11.9057 9.25555 11.9126 9.30195C11.9196 9.34836 11.9391 9.39197 11.9691 9.42802C11.9991 9.46408 12.0385 9.49121 12.0829 9.50644L16.3923 10.9746C16.4704 11.0019 16.5559 10.9887 16.624 10.9402C16.6916 10.8911 16.7306 10.8137 16.7302 10.7317L16.7143 6.1877Z" fill="white"/>
</g>
<defs>
<clipPath id="clip0_807_122">
<rect width="12" height="12" fill="white" transform="translate(5 5)"/>
</clipPath>
</defs>
</svg>
