<svg width="24" height="24" viewBox="0 0 24 24" fill="none" xmlns="http://www.w3.org/2000/svg">
<path d="M12 5.24999C13.335 5.24999 14.6401 5.64587 15.7501 6.38757C16.8601 7.12927 17.7253 8.18348 18.2362 9.41688C18.7471 10.6503 18.8808 12.0075 18.6203 13.3169C18.3599 14.6262 17.717 15.829 16.773 16.773C15.829 17.717 14.6262 18.3598 13.3169 18.6203C12.0075 18.8807 10.6503 18.7471 9.41689 18.2362C8.18349 17.7253 7.12928 16.8601 6.38758 15.7501C5.64588 14.6401 5.25 13.335 5.25 12C5.25 11.7016 5.13147 11.4155 4.9205 11.2045C4.70952 10.9935 4.42337 10.875 4.125 10.875C3.82663 10.875 3.54048 10.9935 3.3295 11.2045C3.11853 11.4155 3 11.7016 3 12C3.0002 14.0194 3.67956 15.9801 4.92881 17.5667C6.17807 19.1533 7.92463 20.2737 9.88764 20.7477C11.8506 21.2217 13.916 21.0217 15.7516 20.1799C17.5872 19.3381 19.0864 17.9034 20.008 16.1066C20.9297 14.3098 21.2202 12.2552 20.833 10.2733C20.4457 8.29131 19.4032 6.4972 17.873 5.17942C16.3428 3.86164 14.4139 3.09678 12.3964 3.00782C10.379 2.91887 8.39023 3.511 6.75 4.68899V4.12499C6.75 3.82662 6.63147 3.54048 6.4205 3.3295C6.20952 3.11852 5.92337 2.99999 5.625 2.99999C5.32663 2.99999 5.04048 3.11852 4.8295 3.3295C4.61853 3.54048 4.5 3.82662 4.5 4.12499V7.87499C4.5 8.49599 5.004 8.99999 5.625 8.99999H7.875C8.17337 8.99999 8.45952 8.88147 8.6705 8.67049C8.88147 8.45951 9 8.17336 9 7.87499C9 7.57662 8.88147 7.29048 8.6705 7.0795C8.45952 6.86852 8.17337 6.74999 7.875 6.74999H7.7565C8.95653 5.77708 10.4551 5.24736 12 5.24999ZM12.75 8.62499C12.75 8.32662 12.6315 8.04048 12.4205 7.8295C12.2095 7.61852 11.9234 7.49999 11.625 7.49999C11.3266 7.49999 11.0405 7.61852 10.8295 7.8295C10.6185 8.04048 10.5 8.32662 10.5 8.62499V12.375C10.5 12.996 11.004 13.5 11.625 13.5H13.875C14.1734 13.5 14.4595 13.3815 14.6705 13.1705C14.8815 12.9595 15 12.6734 15 12.375C15 12.0766 14.8815 11.7905 14.6705 11.5795C14.4595 11.3685 14.1734 11.25 13.875 11.25H12.75V8.62499Z" fill="#686868"/>
</svg>
