<svg width="9" height="8" viewBox="0 0 9 8" fill="none" xmlns="http://www.w3.org/2000/svg">
<path fill-rule="evenodd" clip-rule="evenodd" d="M0.0298202 0.00906355C0.0307753 0.0140546 0.229236 0.227423 0.470832 0.48322C0.712438 0.739018 1.18567 1.24229 1.52247 1.60159C2.59636 2.74722 2.83864 2.99973 2.95718 3.09685C3.73001 3.73001 4.76009 3.83835 5.6217 3.37708C5.942 3.20561 6.0684 3.09849 6.53301 2.60482C7.29852 1.79142 8.13992 0.895479 8.55056 0.456513L8.97753 8.45928e-05L8.32455 4.83585e-05L7.67157 0L6.93691 0.782161C5.39167 2.42729 5.47582 2.34242 5.26966 2.46397C5.13475 2.54351 4.97199 2.60716 4.81461 2.64193C4.64089 2.68031 4.37716 2.6823 4.20493 2.64656C3.91292 2.58595 3.66526 2.45498 3.44348 2.24387C3.39115 2.19404 2.89391 1.66878 2.33852 1.07664L1.32872 0H0.678405C0.32073 0 0.0288652 0.00407256 0.0298202 0.00906355ZM4.24157 4.33449C3.77679 4.39032 3.35198 4.56976 2.97921 4.86771C2.84415 4.97567 2.81687 5.00402 1.47191 6.43475C0.897191 7.04612 0.330899 7.64838 0.213483 7.77312L0 7.99993L0.657303 7.99955L1.31461 7.99919L2.1236 7.13507C3.53047 5.63232 3.56216 5.60109 3.80819 5.4748C4.09646 5.32682 4.45207 5.2713 4.75281 5.32733C5.00153 5.37366 5.23227 5.47579 5.42819 5.62627C5.5317 5.70576 6.10891 6.30963 7.21348 7.494L7.68539 8L8.3427 7.99996L9 7.99993L8.78652 7.77327C8.6691 7.64861 8.10534 7.04897 7.53371 6.44074C6.27119 5.09738 6.17157 4.99339 6.05056 4.89247C5.6977 4.59822 5.2871 4.41402 4.83146 4.34559C4.72789 4.33002 4.33956 4.32273 4.24157 4.33449Z" fill="#212121"/>
</svg>
