<svg width="17" height="17" viewBox="0 0 17 17" fill="none" xmlns="http://www.w3.org/2000/svg">
<g clip-path="url(#clip0_14_60)">
<path fill-rule="evenodd" clip-rule="evenodd" d="M8.50004 0.708344C4.19692 0.708344 0.708374 4.19689 0.708374 8.50001C0.708374 12.8031 4.19692 16.2917 8.50004 16.2917C12.8032 16.2917 16.2917 12.8031 16.2917 8.50001C16.2917 4.19689 12.8032 0.708344 8.50004 0.708344ZM6.23337 7.08334C6.13285 7.08218 6.03378 7.10749 5.94613 7.15673C5.85847 7.20596 5.78532 7.27739 5.734 7.36384C5.68568 7.44782 5.66265 7.54397 5.66768 7.64073C5.6727 7.73749 5.70557 7.83074 5.76233 7.90926L8.029 11.0968C8.08309 11.1708 8.15403 11.2308 8.23594 11.272C8.31785 11.3131 8.40838 11.3341 8.50004 11.3333C8.59182 11.3342 8.68249 11.3133 8.76453 11.2721C8.84658 11.231 8.91763 11.1709 8.97179 11.0968L11.2385 7.90926C11.2952 7.83074 11.3281 7.73749 11.3331 7.64073C11.3381 7.54397 11.3151 7.44782 11.2668 7.36384C11.2154 7.27729 11.1421 7.20579 11.0544 7.15655C10.9666 7.10731 10.8674 7.08206 10.7667 7.08334H6.23337Z" fill="#FFA420"/>
</g>
<defs>
<clipPath id="clip0_14_60">
<rect width="17" height="17" fill="white"/>
</clipPath>
</defs>
</svg>
