<svg width="25" height="24" viewBox="0 0 25 24" fill="none" xmlns="http://www.w3.org/2000/svg">
<path d="M6.00091 18.2381C5.0198 17.3546 4.31204 16.2954 3.84833 15.1581C2.61829 12.1416 3.19426 8.55393 5.59577 6.07921L7.8118 8.29523C7.93383 8.41726 8.15348 8.3294 8.18276 8.1488L9.39328 0.226749C9.4128 0.0949585 9.30054 -0.0173071 9.16875 0.00221732L1.24182 1.21273C1.06122 1.24202 0.973355 1.46167 1.09538 1.5837L3.31629 3.80461C-0.349427 7.5533 -0.97421 13.1763 1.43218 17.5694C2.15459 18.8921 3.15521 20.1027 4.42919 21.1179C6.5964 22.841 9.26149 23.6659 11.9071 23.6122L12.4049 20.3565C10.1254 20.5517 7.78251 19.8488 6.00091 18.2381Z" fill="#FFA420"/>
<path d="M20.7417 20.1954C24.4074 16.4467 25.0322 10.8237 22.6258 6.43066C21.9034 5.10788 20.9028 3.89736 19.6288 2.88209C17.4616 1.15905 14.7965 0.334144 12.1509 0.387836L11.6531 3.64354C13.9277 3.4483 16.2755 4.15118 18.0571 5.76195C19.0382 6.64543 19.746 7.70463 20.2097 8.84193C21.4397 11.8585 20.8637 15.4461 18.4622 17.9208L16.2462 15.7048C16.1242 15.5828 15.9045 15.6706 15.8752 15.8512L14.6647 23.7733C14.6452 23.9051 14.7575 24.0173 14.8893 23.9978L22.8162 22.7873C22.9968 22.758 23.0798 22.5383 22.9626 22.4163L20.7417 20.1954Z" fill="#FFA420"/>
</svg>
