<svg width="22" height="22" viewBox="0 0 22 22" fill="none" xmlns="http://www.w3.org/2000/svg">
<circle cx="11" cy="11" r="11" fill="#FFA420"/>
<g clip-path="url(#clip0_659_649)">
<path fill-rule="evenodd" clip-rule="evenodd" d="M9.83329 5.16662C9.8334 5.04496 9.79547 4.92632 9.72481 4.82729C9.65415 4.72826 9.5543 4.65379 9.43923 4.61432C9.32415 4.57485 9.19962 4.57234 9.08305 4.60715C8.96648 4.64196 8.86371 4.71234 8.78912 4.80845L4.70579 10.0585C4.62613 10.1609 4.58289 10.2869 4.58289 10.4166C4.58289 10.5464 4.62613 10.6724 4.70579 10.7748L8.78912 16.0248C8.86371 16.1209 8.96648 16.1913 9.08305 16.2261C9.19962 16.2609 9.32415 16.2584 9.43923 16.2189C9.5543 16.1794 9.65415 16.105 9.72481 16.0059C9.79547 15.9069 9.8334 15.7883 9.83329 15.6666V13.3391C12.971 13.4045 14.4784 14 15.2355 14.6475C15.9554 15.263 16.0872 15.9869 16.2243 16.7452L16.2599 16.9406C16.2861 17.0804 16.3624 17.2059 16.4746 17.2934C16.5868 17.3808 16.7271 17.4243 16.8691 17.4155C17.0111 17.4068 17.145 17.3464 17.2456 17.2459C17.3462 17.1453 17.4066 17.0114 17.4155 16.8695C17.5152 15.2665 17.3653 12.9436 16.233 11.0005C15.134 9.11462 13.1548 7.66445 9.83329 7.51278V5.16662Z" fill="#FDFDFD"/>
</g>
<defs>
<clipPath id="clip0_659_649">
<rect width="14" height="14" fill="white" transform="translate(4 4)"/>
</clipPath>
</defs>
</svg>
