<svg width="22" height="22" viewBox="0 0 22 22" fill="none" xmlns="http://www.w3.org/2000/svg">
<circle cx="11" cy="11" r="11" fill="#FFA420"/>
<path d="M12 9H7C6.4485 9 6 9.4485 6 10V15C6 15.5515 6.4485 16 7 16H12C12.5515 16 13 15.5515 13 15V10C13 9.4485 12.5515 9 12 9Z" fill="white"/>
<path d="M15 6H10C9.73478 6 9.48043 6.10536 9.29289 6.29289C9.10536 6.48043 9 6.73478 9 7V8H13C13.2652 8 13.5196 8.10536 13.7071 8.29289C13.8946 8.48043 14 8.73478 14 9V13H15C15.2652 13 15.5196 12.8946 15.7071 12.7071C15.8946 12.5196 16 12.2652 16 12V7C16 6.73478 15.8946 6.48043 15.7071 6.29289C15.5196 6.10536 15.2652 6 15 6Z" fill="white"/>
</svg>
