<svg width="20" height="20" viewBox="0 0 20 20" fill="none" xmlns="http://www.w3.org/2000/svg">
<path d="M10 0C15.5229 0 20 4.47707 20 10C20 15.5229 15.5229 20 10 20C4.47707 20 0 15.5229 0 10C0 4.47707 4.47707 0 10 0ZM10.8664 2.10526H8.6315C8.39904 2.10526 8.21049 2.29367 8.21049 2.52628V11.6842C8.21049 11.9166 8.39904 12.1052 8.6315 12.1052H15.4819C15.7143 12.1052 15.9029 11.9166 15.9029 11.6842V9.44925C15.9029 9.21678 15.7143 9.02823 15.4819 9.02823L11.2875 9.02809L11.2877 2.52621C11.2877 2.29359 11.0991 2.10519 10.8667 2.10519L10.8664 2.10526Z" fill="#686868"/>
</svg>
