<svg width="11" height="11" viewBox="0 0 11 11" fill="none" xmlns="http://www.w3.org/2000/svg">
<g clip-path="url(#clip0_7_639)">
<path d="M8.25 2.0625C8.25 1.69783 8.10513 1.34809 7.84727 1.09023C7.58941 0.832366 7.23967 0.6875 6.875 0.6875H2.0625C1.69783 0.6875 1.34809 0.832366 1.09023 1.09023C0.832366 1.34809 0.6875 1.69783 0.6875 2.0625V6.875C0.6875 7.23967 0.832366 7.58941 1.09023 7.84727C1.34809 8.10513 1.69783 8.25 2.0625 8.25V7.5625C1.88016 7.5625 1.7053 7.49007 1.57636 7.36114C1.44743 7.2322 1.375 7.05734 1.375 6.875V2.0625C1.375 1.88016 1.44743 1.7053 1.57636 1.57636C1.7053 1.44743 1.88016 1.375 2.0625 1.375H6.875C7.05734 1.375 7.2322 1.44743 7.36114 1.57636C7.49007 1.7053 7.5625 1.88016 7.5625 2.0625H8.25Z" fill="#686868"/>
<path d="M4.125 9.625C3.94266 9.625 3.7678 9.55257 3.63886 9.42364C3.50993 9.2947 3.4375 9.11984 3.4375 8.9375V4.125C3.4375 3.94266 3.50993 3.7678 3.63886 3.63886C3.7678 3.50993 3.94266 3.4375 4.125 3.4375H8.9375C9.11984 3.4375 9.2947 3.50993 9.42364 3.63886C9.55257 3.7678 9.625 3.94266 9.625 4.125V8.9375C9.625 9.11984 9.55257 9.2947 9.42364 9.42364C9.2947 9.55257 9.11984 9.625 8.9375 9.625H4.125ZM4.125 10.3125H8.9375C9.30217 10.3125 9.65191 10.1676 9.90977 9.90977C10.1676 9.65191 10.3125 9.30217 10.3125 8.9375V4.125C10.3125 3.76033 10.1676 3.41059 9.90977 3.15273C9.65191 2.89487 9.30217 2.75 8.9375 2.75H4.125C3.76033 2.75 3.41059 2.89487 3.15273 3.15273C2.89487 3.41059 2.75 3.76033 2.75 4.125V8.9375C2.75 9.30217 2.89487 9.65191 3.15273 9.90977C3.41059 10.1676 3.76033 10.3125 4.125 10.3125Z" fill="#686868"/>
</g>
<defs>
<clipPath id="clip0_7_639">
<rect width="11" height="11" fill="white" transform="matrix(1 0 0 -1 0 11)"/>
</clipPath>
</defs>
</svg>
