<svg width="13" height="13" viewBox="0 0 13 13" fill="none" xmlns="http://www.w3.org/2000/svg">
<path fill-rule="evenodd" clip-rule="evenodd" d="M6.5 0C2.91023 0 0 2.91023 0 6.5C0 10.0898 2.91023 13 6.5 13C10.0898 13 13 10.0898 13 6.5C13 2.91023 10.0898 0 6.5 0ZM4.60909 5.31818C4.52523 5.31721 4.44259 5.33833 4.36946 5.3794C4.29634 5.42047 4.23531 5.48006 4.1925 5.55218C4.15219 5.62224 4.13298 5.70245 4.13717 5.78317C4.14137 5.86389 4.16879 5.94168 4.21614 6.00718L6.10705 8.66627C6.15217 8.728 6.21135 8.7781 6.27968 8.81242C6.34801 8.84674 6.42354 8.8643 6.5 8.86364C6.57656 8.86439 6.6522 8.84688 6.72065 8.81256C6.78909 8.77823 6.84836 8.72809 6.89355 8.66627L8.78445 6.00718C8.8318 5.94168 8.85922 5.86389 8.86342 5.78317C8.86761 5.70245 8.8484 5.62224 8.80809 5.55218C8.76523 5.47997 8.70411 5.42033 8.63087 5.37925C8.55764 5.33817 8.47487 5.31711 8.39091 5.31818L4.60909 5.31818Z" fill="#686868"/>
</svg>
