<svg width="56" height="55" viewBox="0 0 56 55" fill="none" xmlns="http://www.w3.org/2000/svg">
<path fill-rule="evenodd" clip-rule="evenodd" d="M52.3959 13.9769C49.5357 15.6502 45.5215 14.1085 43.4298 10.5333C41.3381 6.95805 41.961 2.70325 44.8212 1.02989C47.6814 -0.643465 51.6956 0.898287 53.7873 4.47349C55.879 8.0487 55.2561 12.3035 52.3959 13.9769ZM16.4847 39.6147C16.2914 38.081 16.3991 36.5244 16.8016 35.0319C17.2032 33.5362 17.8884 32.1316 18.82 30.8945C19.7847 29.6096 20.9951 28.5291 22.3808 27.7157C24.3223 26.5702 26.5302 25.9842 28.7688 26.0172C29.3043 26.0251 29.8341 26.0682 30.3581 26.1465C30.5429 25.6499 30.7614 25.1654 31.0134 24.6928C32.067 22.7173 33.6476 21.0681 35.589 19.9226C36.987 19.0977 38.4997 18.5662 40.0932 18.3427C41.6319 18.125 43.1808 18.2039 44.6908 18.5765C46.1924 18.9441 47.6074 19.6027 48.8554 20.5151C50.1533 21.4641 51.2299 22.6499 52.0501 24.04C52.8238 25.3514 53.3623 26.8759 53.6509 28.5797C53.8913 30.004 53.9644 31.5854 53.8672 33.2833C53.7117 35.9711 53.1207 39.0274 52.1167 42.3646C50.4534 47.8957 48.2099 52.3624 48.1121 52.5475L47.532 53.6968C47.2741 54.2046 46.7425 54.5183 46.1733 54.4984L44.8868 54.4505C44.6752 54.4427 39.6868 54.2483 34.0371 53.032C30.6305 52.2972 27.6695 51.3367 25.2416 50.1731C23.7084 49.4373 22.3555 48.611 21.229 47.7095C19.8772 46.633 18.8031 45.4245 18.0294 44.1132C17.2052 42.7253 16.6878 41.2096 16.4847 39.6147ZM1.68226 34.9648C3.9134 38.7784 8.04072 40.5134 10.9009 38.84C13.7611 37.1666 14.271 32.7186 12.0398 28.9051C9.80869 25.0915 5.68137 23.3566 2.8212 25.0299C-0.0389595 26.7033 -0.548885 31.1513 1.68226 34.9648ZM24.7135 13.2695C27.363 17.7981 32.2158 19.8866 35.5527 17.9343C38.8896 15.9821 39.4468 10.7283 36.7973 6.19974C34.1478 1.67115 29.2949 -0.417389 25.9581 1.53486C22.6212 3.48711 22.064 8.74087 24.7135 13.2695ZM21.0477 25.0712C17.7109 27.0235 12.971 25.1281 10.461 20.8379C7.95095 16.5477 8.62122 11.4871 11.9581 9.53486C15.2949 7.58261 20.0348 9.47793 22.5448 13.7682C25.0549 18.0584 24.3846 23.119 21.0477 25.0712Z" fill="url(#paint0_linear_7_674)"/>
<defs>
<linearGradient id="paint0_linear_7_674" x1="55.0393" y1="3.72031" x2="20.1638" y2="48.9227" gradientUnits="userSpaceOnUse">
<stop stop-color="#FDD340"/>
<stop offset="1" stop-color="#FFA623"/>
</linearGradient>
</defs>
</svg>
