<svg width="14" height="12" viewBox="0 0 14 12" fill="none" xmlns="http://www.w3.org/2000/svg">
<g clip-path="url(#clip0_100_91)">
<path d="M13.9951 5.98828C13.9951 6.41016 13.6306 6.74063 13.2174 6.74063H12.4396L12.4566 10.4953C12.4566 10.5586 12.4517 10.6219 12.4444 10.6852V11.0625C12.4444 11.5805 12.0094 12 11.4722 12H11.0833C11.0566 12 11.0299 12 11.0031 11.9977C10.9691 12 10.9351 12 10.901 12H9.52778C8.99063 12 8.55556 11.5805 8.55556 11.0625V9C8.55556 8.58516 8.20799 8.25 7.77778 8.25H6.22222C5.79201 8.25 5.44444 8.58516 5.44444 9V11.0625C5.44444 11.5805 5.00938 12 4.47222 12H3.11354C3.07708 12 3.04063 11.9977 3.00417 11.9953C2.975 11.9977 2.94583 12 2.91667 12H2.52778C1.99063 12 1.55556 11.5805 1.55556 11.0625V8.4375C1.55556 8.41641 1.55556 8.39297 1.55799 8.37188V6.74063H0.777778C0.340278 6.74063 0 6.4125 0 5.98828C0 5.77734 0.0729167 5.58984 0.243056 5.42578L6.475 0.1875C6.64514 0.0234375 6.83958 0 7.00972 0C7.17986 0 7.37431 0.046875 7.52014 0.164062L13.7278 5.42578C13.9222 5.58984 14.0194 5.77734 13.9951 5.98828Z" fill="white"/>
</g>
<defs>
<clipPath id="clip0_100_91">
<rect width="14" height="12" fill="white"/>
</clipPath>
</defs>
</svg>
