<svg width="12" height="11" viewBox="0 0 12 11" fill="none" xmlns="http://www.w3.org/2000/svg">
<g clip-path="url(#clip0_810_719)">
<path d="M1.87777 7.05554L1.30939 9.50853C1.28978 9.5982 1.29045 9.69112 1.31136 9.78049C1.33226 9.86987 1.37286 9.95345 1.4302 10.0251C1.48754 10.0968 1.56017 10.1548 1.64278 10.1948C1.72539 10.2348 1.81589 10.2558 1.90768 10.2564C1.95045 10.2607 1.99354 10.2607 2.03631 10.2564L4.50426 9.68802L9.24272 4.9675L6.59828 2.32904L1.87777 7.05554Z" fill="white"/>
<path d="M10.7325 2.60421L8.96749 0.839258C8.85146 0.723807 8.69443 0.658997 8.53074 0.658997C8.36705 0.658997 8.21003 0.723807 8.09399 0.839258L7.11279 1.82045L9.75425 4.46191L10.7354 3.48071C10.7929 3.423 10.8383 3.35453 10.8693 3.27923C10.9002 3.20392 10.916 3.12325 10.9157 3.04184C10.9154 2.96043 10.8991 2.87988 10.8677 2.80478C10.8362 2.72969 10.7903 2.66153 10.7325 2.60421Z" fill="white"/>
</g>
<defs>
<clipPath id="clip0_810_719">
<rect width="10.7692" height="10.7692" fill="white" transform="translate(0.615356 0.115356)"/>
</clipPath>
</defs>
</svg>
