<svg width="11" height="11" viewBox="0 0 11 11" fill="none" xmlns="http://www.w3.org/2000/svg">
<path d="M8.7189 7.78113C8.50423 7.57551 8.29531 7.36399 8.09235 7.1468C7.92185 6.97355 7.81919 6.84751 7.81919 6.84751L6.53585 6.23471C7.04964 5.65201 7.3332 4.90188 7.33335 4.12501C7.33335 2.3563 5.89419 0.916672 4.12502 0.916672C2.35585 0.916672 0.916687 2.3563 0.916687 4.12501C0.916687 5.89371 2.35585 7.33334 4.12502 7.33334C4.93306 7.33334 5.6696 7.03084 6.23473 6.5363L6.84752 7.81963C6.84752 7.81963 6.97356 7.9223 7.14681 8.0928C7.32419 8.25917 7.55748 8.48421 7.78115 8.71934L8.40356 9.35734L8.6804 9.65342L9.65252 8.6813L9.35644 8.40446C9.18273 8.23396 8.95081 8.00755 8.7189 7.78113ZM4.12502 6.41667C2.8614 6.41667 1.83335 5.38863 1.83335 4.12501C1.83335 2.86138 2.8614 1.83334 4.12502 1.83334C5.38865 1.83334 6.41669 2.86138 6.41669 4.12501C6.41669 5.38863 5.38865 6.41667 4.12502 6.41667Z" fill="#686868"/>
</svg>
