<svg width="600" height="59" viewBox="0 0 600 59" fill="none" xmlns="http://www.w3.org/2000/svg">
<path d="M0 2H600V59H0V2Z" fill="url(#paint0_linear_612_80)"/>
<path d="M348 1.49997C348 27.7335 326.286 49 299.5 49C272.714 49 251 27.7335 251 1.49997C283.5 1.49997 269.214 1.49997 296 1.49997C322.786 1.49997 302.5 1.50002 348 1.49997Z" fill="#FAFAFA"/>
<path fill-rule="evenodd" clip-rule="evenodd" d="M348.815 2.00192C348.814 1.72578 349.037 1.50107 349.313 1.50001L599.481 0.542789C599.757 0.541733 599.982 0.764732 599.983 1.04087C599.984 1.31701 599.761 1.54172 599.485 1.54278L349.317 2.5C349.04 2.50106 348.816 2.27806 348.815 2.00192ZM0 1.99999C0 1.72385 0.223858 1.49999 0.5 1.49999L250.67 1.49997C250.739 1.49997 250.805 1.51396 250.865 1.53926C251.044 1.61516 251.17 1.79286 251.17 1.99997C251.17 28.2193 272.7 49 299.5 49C326.296 49 347.5 28.2237 347.5 1.99999C347.5 1.72385 347.724 1.49999 348 1.49999C348.276 1.49999 348.5 1.72385 348.5 1.99999C348.5 28.7956 326.828 50 299.5 50C272.346 50 250.445 29.0632 250.173 2.49997L0.5 2.49999C0.223858 2.49999 0 2.27613 0 1.99999Z" fill="#CCCCCC"/>
<defs>
<linearGradient id="paint0_linear_612_80" x1="-6.36167e-07" y1="31" x2="23.5807" y2="147.586" gradientUnits="userSpaceOnUse">
<stop stop-color="#FFB82F"/>
<stop offset="0.261249" stop-color="#FFA623"/>
<stop offset="0.781778" stop-color="#FFA623"/>
<stop offset="0.996246" stop-color="#FFB72E"/>
</linearGradient>
</defs>
</svg>
