<svg width="87" height="85" viewBox="0 0 87 85" fill="none" xmlns="http://www.w3.org/2000/svg">
<g filter="url(#filter0_d_729_81)">
<ellipse cx="43.5" cy="42.5" rx="33.5" ry="32.5" fill="white"/>
</g>
<path fill-rule="evenodd" clip-rule="evenodd" d="M60.244 33.6882C58.0568 34.9678 54.9871 33.7888 53.3875 31.0548C51.788 28.3209 52.2644 25.0672 54.4516 23.7876C56.6388 22.5079 59.7085 23.6869 61.308 26.4209C62.9076 29.1549 62.4312 32.4086 60.244 33.6882ZM32.7824 53.2936C32.6346 52.1208 32.7169 50.9305 33.0247 49.7892C33.3318 48.6454 33.8558 47.5713 34.5682 46.6253C35.306 45.6427 36.2316 44.8164 37.2912 44.1945C38.7759 43.3185 40.4643 42.8704 42.1761 42.8956C42.5857 42.9016 42.9908 42.9346 43.3915 42.9945C43.5329 42.6147 43.6999 42.2442 43.8926 41.8828C44.6983 40.3722 45.907 39.111 47.3916 38.235C48.4607 37.6042 49.6174 37.1978 50.836 37.0268C52.0126 36.8604 53.1971 36.9207 54.3518 37.2056C55.5001 37.4867 56.5821 37.9904 57.5365 38.6881C58.529 39.4138 59.3523 40.3206 59.9795 41.3836C60.5712 42.3864 60.983 43.5522 61.2036 44.8552C61.3875 45.9443 61.4434 47.1537 61.369 48.452C61.2502 50.5074 60.7982 52.8446 60.0304 55.3965C58.7585 59.6262 57.0429 63.0419 56.9681 63.1835L56.5245 64.0623C56.3273 64.4507 55.9208 64.6905 55.4855 64.6753L54.5017 64.6387C54.3398 64.6327 50.5252 64.4841 46.2049 63.554C43.5998 62.9921 41.3355 62.2576 39.4789 61.3678C38.3065 60.805 37.2719 60.1732 36.4104 59.4838C35.3767 58.6606 34.5553 57.7365 33.9636 56.7337C33.3334 55.6724 32.9378 54.5133 32.7824 53.2936ZM21.463 49.7378C23.1691 52.6541 26.3253 53.9808 28.5125 52.7012C30.6997 51.4215 31.0896 48.0201 29.3835 45.1039C27.6773 42.1876 24.5211 40.8609 22.3339 42.1405C20.1467 43.4201 19.7568 46.8216 21.463 49.7378ZM39.0751 33.1472C41.1011 36.6103 44.8122 38.2074 47.3639 36.7145C49.9156 35.2216 50.3417 31.204 48.3156 27.741C46.2896 24.2779 42.5785 22.6808 40.0268 24.1737C37.4751 25.6666 37.049 29.6842 39.0751 33.1472ZM36.2718 42.1721C33.7201 43.665 30.0955 42.2157 28.1761 38.9349C26.2567 35.6541 26.7692 31.7843 29.3209 30.2914C31.8727 28.7985 35.4972 30.2478 37.4167 33.5286C39.3361 36.8094 38.8236 40.6792 36.2718 42.1721Z" fill="url(#paint0_linear_729_81)"/>
<defs>
<filter id="filter0_d_729_81" x="0" y="0" width="87" height="85" filterUnits="userSpaceOnUse" color-interpolation-filters="sRGB">
<feFlood flood-opacity="0" result="BackgroundImageFix"/>
<feColorMatrix in="SourceAlpha" type="matrix" values="0 0 0 0 0 0 0 0 0 0 0 0 0 0 0 0 0 0 127 0" result="hardAlpha"/>
<feOffset/>
<feGaussianBlur stdDeviation="5"/>
<feComposite in2="hardAlpha" operator="out"/>
<feColorMatrix type="matrix" values="0 0 0 0 0.408333 0 0 0 0 0.408333 0 0 0 0 0.408333 0 0 0 0.16 0"/>
<feBlend mode="normal" in2="BackgroundImageFix" result="effect1_dropShadow_729_81"/>
<feBlend mode="normal" in="SourceGraphic" in2="effect1_dropShadow_729_81" result="shape"/>
</filter>
<linearGradient id="paint0_linear_729_81" x1="62.2654" y1="25.8449" x2="35.5959" y2="60.4115" gradientUnits="userSpaceOnUse">
<stop stop-color="#FDD340"/>
<stop offset="1" stop-color="#FFA623"/>
</linearGradient>
</defs>
</svg>
