<svg width="25" height="20" viewBox="0 0 25 20" fill="none" xmlns="http://www.w3.org/2000/svg">
<path fill-rule="evenodd" clip-rule="evenodd" d="M0.0828339 0.0226589C0.0854869 0.0351364 0.636766 0.568557 1.30787 1.20805C1.979 1.84754 3.29354 3.10572 4.22909 4.00398C7.21211 6.86806 7.88511 7.49934 8.21439 7.74212C10.3611 9.32504 13.2225 9.59589 15.6158 8.4427C16.5056 8.01402 16.8567 7.74623 18.1473 6.51204C20.2737 4.47854 22.6109 2.2387 23.7516 1.14128L24.9376 0.000211482L23.1238 0.000120896L21.3099 0L19.2692 1.9554C14.9769 6.06823 15.2106 5.85605 14.638 6.15992C14.2632 6.35878 13.8111 6.5179 13.3739 6.60482C12.8914 6.70078 12.1588 6.70576 11.6804 6.61639C10.8692 6.46488 10.1813 6.13745 9.56523 5.60967C9.41985 5.48511 8.03864 4.17195 6.49588 2.6916L3.69089 0H1.88446C0.890917 0 0.080181 0.0101814 0.0828339 0.0226589ZM11.7821 10.8362C10.4911 10.9758 9.31105 11.4244 8.27559 12.1693C7.90041 12.4392 7.82463 12.5101 4.08864 16.0869C2.4922 17.6153 0.919164 19.121 0.593009 19.4328L0 19.9998L1.82584 19.9989L3.65169 19.998L5.89888 17.8377C9.80687 14.0808 9.89488 14.0027 10.5783 13.687C11.3791 13.317 12.3669 13.1783 13.2022 13.3183C13.8931 13.4341 14.5341 13.6895 15.0783 14.0657C15.3658 14.2644 16.9692 15.7741 20.0375 18.735L21.3483 20L23.1742 19.9999L25 19.9998L24.407 19.4332C24.0808 19.1215 22.5148 17.6224 20.927 16.1019C17.42 12.7434 17.1433 12.4835 16.8071 12.2312C15.8269 11.4955 14.6864 11.0351 13.4207 10.864C13.133 10.8251 12.0543 10.8068 11.7821 10.8362Z" fill="#212121"/>
</svg>
